<svg id="gatewayssvg" xmlns="http://www.w3.org/2000/svg" width="512" height="512" viewBox="0 0 512 512">
  <g id="Group_30" data-name="Group 30">
    <g id="Group_29" data-name="Group 29">
      <path id="Path_27" data-name="Path 27" d="M490.667,149.333H320a21.327,21.327,0,0,0-21.333,21.333V469.333A21.327,21.327,0,0,0,320,490.666H490.667A21.327,21.327,0,0,0,512,469.333V170.667A21.328,21.328,0,0,0,490.667,149.333Z"/>
    </g>
  </g>
  <g id="Group_32" data-name="Group 32">
    <g id="Group_31" data-name="Group 31">
      <path id="Path_28" data-name="Path 28" d="M463.085,48.922a21.31,21.31,0,0,0-30.165,0l-6.251,6.251V21.338a21.333,21.333,0,0,0-42.666,0V55.173l-6.251-6.251a21.33,21.33,0,0,0-30.165,30.165l42.645,42.645a21.129,21.129,0,0,0,6.955,4.629,21.4,21.4,0,0,0,23.253-4.629l42.645-42.645A21.31,21.31,0,0,0,463.085,48.922Z"/>
    </g>
  </g>
  <g id="Group_34" data-name="Group 34">
    <g id="Group_33" data-name="Group 33">
      <rect id="Rectangle_3" data-name="Rectangle 3" width="64" height="42.667" transform="translate(106.67 234.67)"/>
    </g>
  </g>
  <g id="Group_36" data-name="Group 36">
    <g id="Group_35" data-name="Group 35">
      <path id="Path_29" data-name="Path 29" d="M256,64H213.333V21.333A21.327,21.327,0,0,0,192,0H85.333A21.327,21.327,0,0,0,64,21.333V64H21.333A21.327,21.327,0,0,0,0,85.333V490.666A21.327,21.327,0,0,0,21.333,512H256a21.327,21.327,0,0,0,21.333-21.333V85.333A21.327,21.327,0,0,0,256,64ZM106.667,85.333V42.667h64V128h-64V85.333Zm0,362.667H85.333a21.333,21.333,0,0,1,0-42.666h21.333a21.333,21.333,0,0,1,0,42.666Zm0-64H85.333a21.333,21.333,0,0,1,0-42.666h21.333a21.333,21.333,0,0,1,0,42.666ZM192,448H170.667a21.333,21.333,0,0,1,0-42.666H192A21.333,21.333,0,0,1,192,448Zm0-64H170.667a21.333,21.333,0,0,1,0-42.666H192A21.333,21.333,0,0,1,192,384Zm21.333-85.333A21.327,21.327,0,0,1,192,320H85.333A21.327,21.327,0,0,1,64,298.667V213.334A21.327,21.327,0,0,1,85.333,192H192a21.327,21.327,0,0,1,21.333,21.333v85.334Z"/>
    </g>
  </g>
</svg>
