<svg xmlns="http://www.w3.org/2000/svg" width="262.393" height="262.395" viewBox="0 0 262.393 262.395">
  <g id="settingssvg" transform="translate(-0.001)">
    <path id="Path_30" data-name="Path 30" d="M245.63,103.39h-9.91a107.445,107.445,0,0,0-10.955-26.432l7.015-7.015a16.762,16.762,0,0,0,0-23.705L216.159,30.617a16.762,16.762,0,0,0-23.705,0l-7.015,7.015a107.484,107.484,0,0,0-26.432-10.955V16.763A16.763,16.763,0,0,0,142.244,0H120.153A16.763,16.763,0,0,0,103.39,16.763v9.914A107.474,107.474,0,0,0,76.959,37.631l-7.016-7.015a16.761,16.761,0,0,0-23.705,0L30.618,46.238a16.762,16.762,0,0,0,0,23.705l7.014,7.014A107.452,107.452,0,0,0,26.677,103.39H16.763A16.763,16.763,0,0,0,0,120.153v22.09a16.763,16.763,0,0,0,16.762,16.763h9.914a107.494,107.494,0,0,0,10.956,26.433l-7.015,7.015a16.762,16.762,0,0,0,0,23.705L46.239,231.78a16.762,16.762,0,0,0,23.705,0l7.016-7.016a107.439,107.439,0,0,0,26.431,10.955v9.913a16.763,16.763,0,0,0,16.763,16.763h22.091a16.763,16.763,0,0,0,16.763-16.763v-9.913a107.487,107.487,0,0,0,26.432-10.956l7.016,7.017a16.762,16.762,0,0,0,23.705,0l15.621-15.621a16.762,16.762,0,0,0,0-23.706l-7.016-7.016a107.484,107.484,0,0,0,10.955-26.432h9.91a16.763,16.763,0,0,0,16.763-16.763v-22.09A16.764,16.764,0,0,0,245.63,103.39ZM131.2,191.194a60,60,0,1,1,60-60A60.066,60.066,0,0,1,131.2,191.194Z"/>
    <path id="Path_31" data-name="Path 31" d="M131.2,101.2a30,30,0,1,0,30,30A30.032,30.032,0,0,0,131.2,101.2Z"/>
  </g>
</svg>
