<svg xmlns="http://www.w3.org/2000/svg" width="511.999" height="324.094" viewBox="0 0 511.999 324.094">
  <g id="toolssvg" transform="translate(0 -93.953)">
    <g id="Group_37" data-name="Group 37">
      <path id="Path_32" data-name="Path 32" d="M481.832,93.953H30.168A30.168,30.168,0,0,0,0,124.121V387.879a30.168,30.168,0,0,0,30.168,30.168H481.831A30.168,30.168,0,0,0,512,387.879V124.121A30.167,30.167,0,0,0,481.832,93.953ZM77.576,168.081a25.859,25.859,0,0,1,51.718,0V290.533a54.24,54.24,0,0,0-51.718,0V168.081ZM103.434,366.72a28.444,28.444,0,1,1,28.444-28.444A28.476,28.476,0,0,1,103.434,366.72Zm163.771-22.8a25.859,25.859,0,1,1-51.718,0V223.953a54.24,54.24,0,0,0,51.718,0ZM241.347,204.655a28.444,28.444,0,1,1,28.444-28.444A28.476,28.476,0,0,1,241.347,204.655ZM405.118,343.919a25.859,25.859,0,0,1-51.718,0V223.953a54.24,54.24,0,0,0,51.718,0ZM379.259,204.655A28.444,28.444,0,1,1,407.7,176.211,28.476,28.476,0,0,1,379.259,204.655Z"/>
    </g>
  </g>
</svg>
