<svg xmlns="http://www.w3.org/2000/svg" width="474.096" height="512" viewBox="0 0 474.096 512">
  <g id="transferssvg" transform="translate(-18.953 0.001)">
    <g id="Group_39" data-name="Group 39">
      <g id="Group_38" data-name="Group 38">
        <path id="Path_33" data-name="Path 33" d="M240.123,386.983a16.9,16.9,0,0,0-23.909,0l-37.241,37.241V213.2H85.056V424.223L47.815,386.982a16.907,16.907,0,0,0-23.91,23.91l66.1,66.1c.072.072.142.144.215.215l29.838,29.838a16.9,16.9,0,0,0,23.91,0l96.155-96.155A16.906,16.906,0,0,0,240.123,386.983Z"/>
      </g>
    </g>
    <g id="Group_41" data-name="Group 41">
      <g id="Group_40" data-name="Group 40">
        <path id="Path_34" data-name="Path 34" d="M488.1,101.106,391.942,4.951a16.908,16.908,0,0,0-23.91,0l-96.155,96.155a16.907,16.907,0,0,0,23.91,23.91l37.241-37.241V298.8h93.917V87.776l37.242,37.241A16.907,16.907,0,1,0,488.1,101.106Z"/>
      </g>
    </g>
    <g id="Group_43" data-name="Group 43">
      <g id="Group_42" data-name="Group 42">
        <path id="Path_35" data-name="Path 35" d="M179.473,28.177H84.554a33.819,33.819,0,0,0-33.779,33.78v94.919a33.819,33.819,0,0,0,33.78,33.78h94.918a33.818,33.818,0,0,0,33.78-33.78V61.957A33.819,33.819,0,0,0,179.473,28.177Z"/>
      </g>
    </g>
    <g id="Group_45" data-name="Group 45">
      <g id="Group_44" data-name="Group 44">
        <path id="Path_36" data-name="Path 36" d="M427.447,321.343H332.528a33.818,33.818,0,0,0-33.78,33.78v94.919a33.819,33.819,0,0,0,33.78,33.78h94.919a33.818,33.818,0,0,0,33.78-33.78V355.123A33.819,33.819,0,0,0,427.447,321.343Z"/>
      </g>
    </g>
  </g>
</svg>
